:SAMPLES-PER-SECOND 30
:FULLY-SPECIFIED
:DEGREES
627
root  -47.3376 34.2548 0.776942 -163.457 80.1219 -170.672
RightUpLeg  -9.44692 -9.73155 -2.55782
RightLeg  14.8663 5.26602 1.03995
RightFoot  0.668703 0.00586215 0.117327
RightToes  -32.2282 -0.162856 -0.272231
Spine  -3.18711 -0.907134 0.728197
Spine1  -5.49154 -2.3287 2.25665
HEad  -59.2239 -9.93922 11.2918
LeftShoulder1  -1.94126e-019 -3.10601e-018 -2.51263e-017
LeftArm  -22.0305 45.0014 -72.3127
LeftForeArm  34.5922 -1.39305 -0.232288
LeftHand  -0.385984 1.58181 11.6793
RightShoulder  -4.96962e-017 0 -2.36833e-017
RightArm  -45.8197 -44.5994 62.2908
RightForeArm  68.135 2.31014 0.353315
RightHand  0.0565225 -6.11044 -12.3297
LeftUpLeg  -7.1166 6.44857 4.82612
LeftLeg  14.7614 14.2816 2.76359
LeftFoot  0.272024 -0.000621336 0.0946604
LeftToes  -24.4333 1.83942e-006 5.51297e-008
628
root  -47.3595 34.2553 0.780464 -163 80.3538 -170.302
RightUpLeg  -9.48639 -9.67384 -2.52345
RightLeg  14.5947 5.42852 1.04536
RightFoot  0.846916 0.00498603 0.139822
RightToes  -32.2694 -0.162189 -0.271519
Spine  -3.15945 -0.811977 0.760738
Spine1  -5.44481 -2.09976 2.31018
HEad  -58.9972 -9.54082 11.0293
LeftShoulder1  -1.94126e-019 -3.10601e-018 -2.51263e-017
LeftArm  -23.2147 44.8815 -72.718
LeftForeArm  32.2023 -1.23082 -0.206508
LeftHand  -0.359328 2.07233 12.4163
RightShoulder  -4.96962e-017 0 -2.36833e-017
RightArm  -47.3363 -44.5543 63.1172
RightForeArm  66.1779 2.82282 0.447654
RightHand  0.0398538 -5.99755 -11.5357
LeftUpLeg  -7.18496 6.54287 4.81802
LeftLeg  14.7469 14.426 2.7872
LeftFoot  0.290003 -0.000353449 0.104669
LeftToes  -24.6363 1.83942e-006 5.51297e-008
629
root  -47.3872 34.26 0.783765 -162.743 80.442 -170.224
RightUpLeg  -9.51125 -9.78165 -2.50122
RightLeg  14.1599 5.63639 1.04119
RightFoot  1.05214 0.00400177 0.171424
RightToes  -32.3366 -0.161372 -0.270649
Spine  -3.13889 -0.762288 0.813804
Spine1  -5.46371 -1.9333 2.39771
HEad  -58.7065 -8.94593 10.7001
LeftShoulder1  -1.94126e-019 -3.10601e-018 -2.51263e-017
LeftArm  -24.8198 44.4299 -73.5748
LeftForeArm  30.9753 -2.14805 -0.366448
LeftHand  -0.389928 1.71521 12.2165
RightShoulder  -4.96962e-017 0 -2.36833e-017
RightArm  -47.4819 -43.9705 64.375
RightForeArm  64.7166 4.07121 0.666464
RightHand  -0.102243 -4.45808 -10.775
LeftUpLeg  -7.32349 6.73462 4.79716
LeftLeg  14.6107 14.3186 2.73202
LeftFoot  0.323694 0.000117534 0.119968
LeftToes  -24.62 1.83942e-006 5.51297e-008
630
root  -47.4169 34.2765 0.790021 -162.761 80.435 -170.416
RightUpLeg  -9.45732 -9.98402 -2.49624
RightLeg  13.5987 5.83707 1.01938
RightFoot  1.30655 0.00319884 0.207285
RightToes  -32.4813 -0.160366 -0.269613
Spine  -3.02601 -0.730932 0.848863
Spine1  -5.3592 -1.82506 2.44868
HEad  -58.8133 -8.4922 10.4769
LeftShoulder1  -1.94126e-019 -3.10601e-018 -2.51263e-017
LeftArm  -25.055 43.2469 -74.8321
LeftForeArm  30.5991 -3.71456 -0.640423
LeftHand  -0.413571 1.19154 11.3969
RightShoulder  -4.96962e-017 0 -2.36833e-017
RightArm  -42.8552 -43.3223 66.2208
RightForeArm  60.2754 7.09992 1.20797
RightHand  -0.188303 -3.22776 -9.48051
LeftUpLeg  -7.37747 7.04553 4.76649
LeftLeg  14.2329 14.014 2.58059
LeftFoot  0.507095 -3.00536e-005 0.16836
LeftToes  -24.7525 1.83942e-006 5.51297e-008
631
root  -47.4501 34.3267 0.799696 -162.964 80.3762 -170.643
RightUpLeg  -9.05957 -9.88793 -2.49244
RightLeg  12.647 5.69405 0.897686
RightFoot  1.75216 0.00359808 0.256454
RightToes  -32.4548 -0.159133 -0.268401
Spine  -2.78391 -0.71012 0.862256
Spine1  -5.05844 -1.74168 2.45783
HEad  -58.896 -8.03365 10.0554
LeftShoulder1  -1.94126e-019 -3.10601e-018 -2.51263e-017
LeftArm  -24.1133 41.3938 -76.2659
LeftForeArm  30.3356 -5.86537 -1.01963
LeftHand  -0.407813 0.752508 10.2123
RightShoulder  -4.96962e-017 0 -2.36833e-017
RightArm  -38.7936 -41.9744 68.1443
RightForeArm  57.604 10.2135 1.54171
RightHand  -0.249447 -2.31067 -9.10112
LeftUpLeg  -7.02056 7.248 4.75261
LeftLeg  13.2674 13.793 2.30382
LeftFoot  0.984249 -0.00109333 0.288849
LeftToes  -24.926 1.83942e-006 5.51297e-008
632
root  -47.4999 34.4137 0.813516 -163.332 80.2552 -170.916
RightUpLeg  -8.40175 -9.72562 -2.48195
RightLeg  11.3586 5.40914 0.729101
RightFoot  2.42259 0.00381938 0.317474
RightToes  -32.206 -0.157637 -0.267002
Spine  -2.48343 -0.681746 0.868041
Spine1  -4.66266 -1.64205 2.4545
HEad  -58.9318 -7.84974 9.9322
LeftShoulder1  -1.94126e-019 -3.10601e-018 -2.51263e-017
LeftArm  -22.1272 38.8319 -77.6619
LeftForeArm  30.3164 -8.14093 -1.42295
LeftHand  -0.412946 0.0998704 9.12215
RightShoulder  -4.96962e-017 0 -2.36833e-017
RightArm  -32.6818 -39.8993 69.7073
RightForeArm  53.6667 13.0985 1.39883
RightHand  -0.2858 -1.88782 -9.26955
LeftUpLeg  -6.30541 7.15933 4.73606
LeftLeg  11.7212 13.8015 1.9282
LeftFoot  1.77442 -0.00508898 0.490176
LeftToes  -24.8039 1.83942e-006 5.51297e-008
633
root  -47.5599 34.5223 0.833198 -163.791 80.1665 -171.259
RightUpLeg  -7.57126 -9.31138 -2.47008
RightLeg  9.71583 4.89515 0.518025
RightFoot  3.2562 0.00369143 0.37212
RightToes  -31.7876 -0.155838 -0.264196
Spine  -2.23568 -0.635037 0.851806
Spine1  -4.34901 -1.49903 2.40615
HEad  -58.6058 -7.68815 9.93477
LeftShoulder1  -1.94126e-019 -3.10601e-018 -2.51263e-017
LeftArm  -19.7377 35.7502 -78.857
LeftForeArm  30.1094 -10.3967 -1.81562
LeftHand  -0.400951 -0.533861 7.96343
RightShoulder  -4.96962e-017 0 -2.36833e-017
RightArm  -28.4309 -37.0013 71.0719
RightForeArm  51.4314 14.9763 1.22541
RightHand  -0.309536 -1.85748 -9.98153
LeftUpLeg  -5.36328 7.1952 4.70816
LeftLeg  9.70153 13.7182 1.4312
LeftFoot  2.86435 -0.0150305 0.762736
LeftToes  -25.0909 1.83942e-006 5.51297e-008
634
root  -47.6474 34.6359 0.857644 -164.499 80.1366 -171.849
RightUpLeg  -6.70858 -8.71006 -2.49416
RightLeg  7.90502 4.20423 0.311403
RightFoot  4.22023 0.00326324 0.406833
RightToes  -31.403 -0.1537 -0.261085
Spine  -2.0553 -0.536006 0.784014
Spine1  -4.11008 -1.2375 2.24306
HEad  -58.3385 -7.78529 10.1466
LeftShoulder1  -1.94126e-019 -3.10601e-018 -2.51263e-017
LeftArm  -15.8244 32.2531 -79.841
LeftForeArm  30.1907 -12.4988 -2.08519
LeftHand  -0.420039 -0.801842 8.00001
RightShoulder  -4.96962e-017 0 -2.36833e-017
RightArm  -24.4659 -33.3519 72.2724
RightForeArm  50.2012 15.8053 1.20423
RightHand  -0.306427 -2.17177 -10.8067
LeftUpLeg  -4.32554 6.93671 4.6057
LeftLeg  7.48322 13.9094 0.914044
LeftFoot  4.00681 -0.0316433 1.06614
LeftToes  -24.7203 1.83942e-006 5.51297e-008
635
root  -47.7405 34.7273 0.888613 -165.233 80.1256 -172.399
RightUpLeg  -5.86811 -7.97371 -2.51342
RightLeg  6.26373 3.39256 0.15402
RightFoot  5.02609 0.00474994 0.4047
RightToes  -30.8792 -0.150022 -0.257886
Spine  -1.94599 -0.373264 0.704163
Spine1  -3.94281 -0.809462 2.05408
HEad  -57.8841 -7.7874 9.99816
LeftShoulder1  -1.94126e-019 -3.10601e-018 -2.51263e-017
LeftArm  -11.3988 28.8323 -80.553
LeftForeArm  29.3542 -16.8283 -2.70889
LeftHand  -0.407855 -0.529703 8.10448
RightShoulder  -4.96962e-017 0 -2.36833e-017
RightArm  -20.0923 -29.4618 73.2026
RightForeArm  50.5039 16.3662 1.19233
RightHand  -0.302806 -2.297 -11.0931
LeftUpLeg  -3.35609 7.00959 4.54521
LeftLeg  5.47604 13.8275 0.4282
LeftFoot  5.04038 -0.051499 1.33158
LeftToes  -24.7219 1.83942e-006 5.51297e-008
636
root  -47.8362 34.7938 0.925227 -165.784 80.1288 -172.739
RightUpLeg  -5.22796 -7.21869 -2.49817
RightLeg  5.07442 2.59099 0.0639584
RightFoot  5.62671 0.00739577 0.378377
RightToes  -30.4358 -0.147323 -0.254983
Spine  -1.87362 -0.162028 0.6275
Spine1  -3.80663 -0.278317 1.89406
HEad  -57.5217 -7.79431 9.70378
LeftShoulder1  -1.94126e-019 -3.10601e-018 -2.51263e-017
LeftArm  -7.51315 25.191 -81.1315
LeftForeArm  29.6947 -21.2533 -3.37259
LeftHand  -0.402443 -0.685632 7.80595
RightShoulder  -4.96962e-017 0 -2.36833e-017
RightArm  -15.7251 -25.5483 73.8772
RightForeArm  51.8276 17.0035 1.18832
RightHand  -0.349021 -1.21591 -9.61865
LeftUpLeg  -2.59084 7.11171 4.53192
LeftLeg  3.96936 13.687 0.0674933
LeftFoot  5.88875 -0.0712992 1.54771
LeftToes  -24.9173 1.83942e-006 5.51297e-008
637
root  -47.9372 34.8623 0.966565 -166.435 80.0107 -173.177
RightUpLeg  -4.57449 -6.92401 -2.49386
RightLeg  3.88123 2.14883 0.0083088
RightFoot  6.2718 0.00842617 0.369362
RightToes  -30.1205 -0.145099 -0.252802
Spine  -1.82275 -0.0271181 0.557939
Spine1  -3.6897 0.0531451 1.77571
HEad  -57.3986 -7.62842 9.47908
LeftShoulder1  -1.94126e-019 -3.10601e-018 -2.51263e-017
LeftArm  -3.90904 21.5842 -81.6649
LeftForeArm  30.6312 -25.2099 -3.95668
LeftHand  -0.396731 -1.04901 7.29174
RightShoulder  -4.96962e-017 0 -2.36833e-017
RightArm  -11.8721 -21.7528 74.4199
RightForeArm  53.2973 17.8028 1.26248
RightHand  -0.373741 -0.747811 -9.31637
LeftUpLeg  -1.83237 6.90881 4.51685
LeftLeg  2.4362 13.6677 -0.294703
LeftFoot  6.84518 -0.0979162 1.79866
LeftToes  -25.2985 1.83942e-006 5.51297e-008
